<svg width="162" height="29" xmlns="http://www.w3.org/2000/svg"><g fill="none" fill-rule="evenodd"><path d="M36.322 5.504h4.746c2.407 0 4.145.43 5.215 1.289 1.055.86 1.582 2.254 1.582 4.184 0 1.937-.527 3.332-1.582 4.183-1.07.86-2.808 1.29-5.215 1.29H39.78V23h-3.457V5.504zm4.875 8.039c1.14 0 1.938-.191 2.39-.574.454-.383.68-1.047.68-1.992 0-.946-.226-1.61-.68-1.993-.452-.382-1.25-.574-2.39-.574H39.78v5.133h1.418zm13.418 9.797a5.98 5.98 0 0 1-1.928-.293 4.041 4.041 0 0 1-1.494-.89c-.836-.79-1.254-1.891-1.254-3.305 0-.75.12-1.41.358-1.98a3.301 3.301 0 0 1 1.13-1.419c.993-.726 2.528-1.09 4.606-1.09h2.38v-.574c0-.289-.054-.539-.16-.75a1.374 1.374 0 0 0-.439-.516 1.999 1.999 0 0 0-.767-.322 5.137 5.137 0 0 0-1.072-.1c-.375 0-.76.026-1.155.077a9.03 9.03 0 0 0-1.166.228 9.742 9.742 0 0 0-1.172.405c-.406.168-.82.365-1.242.591v-2.93a15.06 15.06 0 0 1 1.108-.392 9.8 9.8 0 0 1 1.2-.299 14.498 14.498 0 0 1 2.637-.234c.547 0 1.042.031 1.483.094a6.8 6.8 0 0 1 1.195.27c.356.116.668.257.938.421.27.164.506.344.709.54.21.21.398.452.562.726.164.273.303.595.416.966.114.372.198.793.252 1.266.055.473.082 1.014.082 1.623 0 .149-.002.344-.006.586a306.61 306.61 0 0 0-.023 1.693 538.053 538.053 0 0 1-.03 2.057 20.179 20.179 0 0 0 .024.902c.016.157.03.311.041.463.012.153.026.28.041.381a7.165 7.165 0 0 0 .164.785c.04.118.088.239.147.364.058.125.119.23.181.316h-3.398a4.03 4.03 0 0 1-.193-.363 3.963 3.963 0 0 1-.135-.317 4.679 4.679 0 0 1-.153-.785 4.384 4.384 0 0 1-1.664 1.336 4.799 4.799 0 0 1-1.013.352 5.452 5.452 0 0 1-1.19.117zm.961-2.38c.438 0 .832-.083 1.184-.251.351-.168.652-.428.902-.78.5-.671.75-1.624.75-2.859v-.234h-1.371c-1.29 0-2.184.164-2.684.492-.507.328-.761.883-.761 1.664 0 .32.043.596.129.826.086.23.218.436.398.616.352.351.836.527 1.453.527zm9.457-11.085h3.082l.34 1.969c.36-.758.832-1.328 1.418-1.711.578-.383 1.27-.574 2.074-.574.735 0 1.393.148 1.975.445.582.297 1.084.746 1.506 1.348.422.609.734 1.345.937 2.209.203.863.305 1.83.305 2.9 0 1.14-.11 2.135-.328 2.982-.219.848-.528 1.553-.926 2.116-.43.609-.947 1.058-1.553 1.347a4.524 4.524 0 0 1-1.974.434 4.21 4.21 0 0 1-1.037-.123 2.906 2.906 0 0 1-.932-.428 4.626 4.626 0 0 1-1.465-1.64v6.843h-3.422V9.875zm5.824 10.605c.743 0 1.325-.359 1.747-1.078.421-.71.632-1.703.632-2.976 0-1.266-.21-2.258-.632-2.977-.422-.719-1.004-1.078-1.747-1.078-.734 0-1.32.36-1.757 1.078-.43.711-.645 1.703-.645 2.977 0 1.273.215 2.265.645 2.976.437.72 1.023 1.078 1.757 1.078zm14.66 2.86c-1.14 0-2.126-.147-2.958-.44a5.513 5.513 0 0 1-2.127-1.33c-1.164-1.187-1.746-2.875-1.746-5.062 0-1.094.138-2.059.416-2.895a6.11 6.11 0 0 1 1.26-2.191c1.109-1.242 2.64-1.863 4.593-1.863.922 0 1.766.138 2.531.416a5.006 5.006 0 0 1 1.98 1.306 5.45 5.45 0 0 1 1.22 2.127c.257.824.386 1.74.386 2.748v1.395h-8.894c.015 1.039.32 1.808.914 2.308.601.508 1.496.762 2.683.762.79 0 1.57-.113 2.344-.34.36-.11.738-.25 1.137-.422.398-.172.82-.39 1.265-.656v3.152a13.05 13.05 0 0 1-3.72.926c-.434.04-.862.059-1.283.059zm2.098-8.367c-.015-.914-.246-1.602-.691-2.063a2.117 2.117 0 0 0-.815-.51 3.362 3.362 0 0 0-1.154-.181c-.805 0-1.441.238-1.91.715-.469.484-.746 1.168-.832 2.05l5.402-.011zm7.383-5.098h3.094l.34 2.04a3.79 3.79 0 0 1 1.547-1.747c.351-.203.73-.355 1.136-.457a5.199 5.199 0 0 1 1.266-.152c.234 0 .476.013.726.04.25.028.48.069.692.124a6.617 6.617 0 0 1 1.277.504v3.27a3.696 3.696 0 0 0-1.312-.774 4.59 4.59 0 0 0-.791-.194 5.62 5.62 0 0 0-.862-.064c-.734 0-1.37.125-1.91.375a2.81 2.81 0 0 0-1.265 1.101 2.775 2.775 0 0 0-.223.457c-.07.18-.125.391-.164.633a7.26 7.26 0 0 0-.088.785c-.02.297-.03.676-.03 1.137V23h-3.433V9.875zm19.504 13.465c-2.055 0-3.648-.61-4.781-1.828-1.14-1.227-1.711-2.914-1.711-5.063 0-2.156.574-3.851 1.722-5.086 1.149-1.218 2.727-1.828 4.735-1.828a8.47 8.47 0 0 1 2.062.246 8.721 8.721 0 0 1 1.946.762v3.14a5.306 5.306 0 0 0-.803-.58 6.175 6.175 0 0 0-.838-.415 4.643 4.643 0 0 0-.89-.252 5.46 5.46 0 0 0-.985-.088c-.586 0-1.088.091-1.506.275a2.879 2.879 0 0 0-1.06.791c-.602.719-.903 1.73-.903 3.035 0 1.305.301 2.313.903 3.024.593.703 1.453 1.054 2.578 1.054.656 0 1.277-.113 1.863-.34.25-.093.518-.222.803-.386a4.78 4.78 0 0 0 .838-.621v3.152c-.313.18-.62.328-.92.445a8.27 8.27 0 0 1-.944.305 7.867 7.867 0 0 1-2.109.258zm14.008-.246c-1.633 0-2.805-.422-3.516-1.266-.71-.836-1.066-2.238-1.066-4.207V7.402h-3.48V4.766h6.913V17.62c0 1.024.16 1.754.48 2.192.313.43.856.644 1.63.644h2.742v2.637h-3.703z" fill="#323336"/><path d="M22.44 13.05l-9.19 9.19a6.003 6.003 0 1 1-8.49-8.49l9.19-9.19a4.002 4.002 0 0 1 5.66 5.66l-9.2 9.19a2.001 2.001 0 0 1-2.83-2.83l8.49-8.48" stroke="#323336" stroke-width="2" stroke-linecap="round" stroke-linejoin="round"/><path d="M149.033 9.875h3.082l.34 1.969c.36-.758.832-1.328 1.418-1.711.578-.383 1.27-.574 2.074-.574.735 0 1.393.148 1.975.445.582.297 1.084.746 1.506 1.348.422.609.734 1.345.937 2.209.203.863.305 1.83.305 2.9 0 1.14-.11 2.135-.328 2.982-.219.848-.528 1.553-.926 2.116-.43.609-.947 1.058-1.553 1.347a4.524 4.524 0 0 1-1.974.434 4.21 4.21 0 0 1-1.037-.123 2.906 2.906 0 0 1-.932-.428 4.626 4.626 0 0 1-1.465-1.64v6.843h-3.422V9.875zm5.824 10.605c.743 0 1.325-.359 1.747-1.078.421-.71.632-1.703.632-2.976 0-1.266-.21-2.258-.632-2.977-.422-.719-1.004-1.078-1.747-1.078-.734 0-1.32.36-1.757 1.078-.43.711-.645 1.703-.645 2.977 0 1.273.215 2.265.645 2.976.437.72 1.023 1.078 1.757 1.078zM137.56 8.316c-.234 0-.351-.117-.351-.351V4.66c0-.234.117-.351.352-.351h2.73c.234 0 .352.117.352.351v3.305c0 .234-.118.351-.352.351h-2.73zm4.231 14.825c-1.633 0-2.805-.422-3.516-1.266-.71-.836-1.066-2.238-1.066-4.207v-5.156h-2.777V9.875h6.21v7.793c0 1.023.16 1.754.481 2.191.313.43.856.645 1.629.645h2.742v2.637h-3.703z" fill="#323336"/></g></svg>