<?xml version="1.0" encoding="UTF-8"?>
<svg width="162px" height="29px" viewBox="0 0 162 29" version="1.1" xmlns="http://www.w3.org/2000/svg" xmlns:xlink="http://www.w3.org/1999/xlink">
    <!-- Generator: Sketch 43.2 (39069) - http://www.bohemiancoding.com/sketch -->
    <title>Paper</title>
    <desc>Created with Sketch.</desc>
    <defs></defs>
    <g id="Page-1" stroke="none" stroke-width="1" fill="none" fill-rule="evenodd">
        <path d="M36.3222656,5.50390625 L41.0683594,5.50390625 C43.4746214,5.50390625 45.2128853,5.93358945 46.2832031,6.79296875 C47.3378959,7.65234805 47.8652344,9.04686535 47.8652344,10.9765625 C47.8652344,12.9140722 47.3378959,14.3085895 46.2832031,15.1601562 C45.2128853,16.0195355 43.4746214,16.4492188 41.0683594,16.4492188 L39.7792969,16.4492188 L39.7792969,23 L36.3222656,23 L36.3222656,5.50390625 Z M41.1972656,13.5429688 C42.3378963,13.5429688 43.1347634,13.3515644 43.5878906,12.96875 C44.0410179,12.5859356 44.2675781,11.9218797 44.2675781,10.9765625 C44.2675781,10.0312453 44.0410179,9.36718941 43.5878906,8.984375 C43.1347634,8.60156059 42.3378963,8.41015625 41.1972656,8.41015625 L39.7792969,8.41015625 L39.7792969,13.5429688 L41.1972656,13.5429688 Z M54.6152344,23.3398438 C53.9042933,23.3398438 53.2617216,23.2421885 52.6875,23.046875 C52.1132784,22.8515615 51.6152365,22.5546895 51.1933594,22.15625 C50.3574177,21.3671836 49.9394531,20.2656321 49.9394531,18.8515625 C49.9394531,18.1015587 50.0585926,17.4414091 50.296875,16.8710938 C50.5351574,16.3007784 50.9121068,15.8281269 51.4277344,15.453125 C52.4199268,14.7265589 53.9550677,14.3632812 56.0332031,14.3632812 L58.4121094,14.3632812 L58.4121094,13.7890625 C58.4121094,13.4999986 58.3593755,13.2500011 58.2539062,13.0390625 C58.148437,12.8281239 58.0019541,12.6562507 57.8144531,12.5234375 C57.6113271,12.3749993 57.3554703,12.2675785 57.046875,12.2011719 C56.7382797,12.1347653 56.3808614,12.1015625 55.9746094,12.1015625 C55.5996075,12.1015625 55.2148457,12.1269529 54.8203125,12.1777344 C54.4257793,12.2285159 54.0371113,12.304687 53.6542969,12.40625 C53.279295,12.507813 52.8886739,12.6425773 52.4824219,12.8105469 C52.0761698,12.9785165 51.6621115,13.1757801 51.2402344,13.4023438 L51.2402344,10.4726562 C51.568361,10.3398431 51.9374979,10.208985 52.3476562,10.0800781 C52.7578146,9.95117123 53.1582012,9.85156285 53.5488281,9.78125 C53.8691422,9.71874969 54.2597633,9.66406273 54.7207031,9.6171875 C55.1816429,9.57031227 55.6699193,9.546875 56.1855469,9.546875 C56.7324246,9.546875 57.2265603,9.57812469 57.6679688,9.640625 C58.1093772,9.70312531 58.5078107,9.79296816 58.8632812,9.91015625 C59.2187518,10.0273443 59.5312487,10.1679679 59.8007812,10.3320312 C60.0703138,10.4960946 60.3066396,10.6757803 60.5097656,10.8710938 C60.7207042,11.0820323 60.9082023,11.3242174 61.0722656,11.5976562 C61.2363289,11.8710951 61.3749994,12.1933575 61.4882812,12.5644531 C61.6015631,12.9355487 61.6855466,13.3574195 61.7402344,13.8300781 C61.7949221,14.3027367 61.8222656,14.843747 61.8222656,15.453125 C61.8222656,15.6015632 61.8203125,15.7968738 61.8164062,16.0390625 C61.8125,16.2812512 61.8085938,16.5468736 61.8046875,16.8359375 C61.8007812,17.1250014 61.796875,17.4238266 61.7929688,17.7324219 C61.7890625,18.0410172 61.7851563,18.3320299 61.78125,18.6054688 C61.7773437,18.8789076 61.7734375,19.1210927 61.7695312,19.3320312 C61.765625,19.5429698 61.7636719,19.695312 61.7636719,19.7890625 C61.7636719,19.9531258 61.765625,20.1171867 61.7695312,20.28125 C61.7734375,20.4453133 61.7792968,20.5820307 61.7871094,20.6914062 C61.8027345,20.847657 61.8164062,21.0019524 61.828125,21.1542969 C61.8398438,21.3066414 61.8535155,21.4335932 61.8691406,21.5351562 C61.8925782,21.691407 61.9199217,21.8417962 61.9511719,21.9863281 C61.982422,22.1308601 62.0097655,22.2421871 62.0332031,22.3203125 C62.0722658,22.4375006 62.1210935,22.5585931 62.1796875,22.6835938 C62.2382815,22.8085944 62.2988278,22.9140621 62.3613281,23 L58.9628906,23 C58.8925778,22.8828119 58.8281253,22.7617194 58.7695312,22.6367188 C58.7109372,22.5117181 58.6660158,22.4062504 58.6347656,22.3203125 C58.611328,22.2421871 58.5839845,22.1308601 58.5527344,21.9863281 C58.5214842,21.8417962 58.498047,21.691407 58.4824219,21.5351562 C58.0527322,22.1054716 57.4980503,22.5507796 56.8183594,22.8710938 C56.4902327,23.0273445 56.1523455,23.1445309 55.8046875,23.2226562 C55.4570295,23.3007816 55.0605491,23.3398438 54.6152344,23.3398438 Z M55.5761719,20.9609375 C56.0136741,20.9609375 56.4082014,20.876954 56.7597656,20.7089844 C57.1113299,20.5410148 57.4121081,20.2812518 57.6621094,19.9296875 C58.1621119,19.2578091 58.4121094,18.3046937 58.4121094,17.0703125 L58.4121094,16.8359375 L57.0410156,16.8359375 C55.7519467,16.8359375 54.8574244,16.9999984 54.3574219,17.328125 C53.8496068,17.6562516 53.5957031,18.2109336 53.5957031,18.9921875 C53.5957031,19.3125016 53.6386714,19.5878895 53.7246094,19.8183594 C53.8105473,20.0488293 53.9433585,20.2539054 54.1230469,20.4335938 C54.4746111,20.785158 54.9589813,20.9609375 55.5761719,20.9609375 Z M65.0332031,9.875 L68.1152344,9.875 L68.4550781,11.84375 C68.8144549,11.0859337 69.2871064,10.5156269 69.8730469,10.1328125 C70.4511748,9.74999809 71.1425741,9.55859375 71.9472656,9.55859375 C72.6816443,9.55859375 73.3398408,9.70702977 73.921875,10.0039062 C74.5039092,10.3007827 75.0058573,10.749997 75.4277344,11.3515625 C75.8496115,11.9609405 76.1621084,12.6972613 76.3652344,13.5605469 C76.5683604,14.4238324 76.6699219,15.3906196 76.6699219,16.4609375 C76.6699219,17.6015682 76.560548,18.5956989 76.3417969,19.4433594 C76.1230458,20.2910199 75.8144551,20.9960909 75.4160156,21.5585938 C74.986326,22.1679718 74.468753,22.6171861 73.8632812,22.90625 C73.2578095,23.1953139 72.5996129,23.3398438 71.8886719,23.3398438 C71.5214825,23.3398438 71.1757829,23.2988285 70.8515625,23.2167969 C70.5273421,23.1347652 70.2167984,22.9921885 69.9199219,22.7890625 C69.6699206,22.6249992 69.4140638,22.4042983 69.1523438,22.1269531 C68.8906237,21.849608 68.6582041,21.5234394 68.4550781,21.1484375 L68.4550781,27.9921875 L65.0332031,27.9921875 L65.0332031,9.875 Z M70.8574219,20.4804688 C71.5996131,20.4804688 72.1816385,20.1210973 72.6035156,19.4023438 C73.0253927,18.6914027 73.2363281,17.6992251 73.2363281,16.4257812 C73.2363281,15.1601499 73.0253927,14.1679723 72.6035156,13.4492188 C72.1816385,12.7304652 71.5996131,12.3710938 70.8574219,12.3710938 C70.1230432,12.3710938 69.5371116,12.7304652 69.0996094,13.4492188 C68.6699197,14.1601598 68.4550781,15.1523374 68.4550781,16.4257812 C68.4550781,17.6992251 68.6699197,18.6914027 69.0996094,19.4023438 C69.5371116,20.1210973 70.1230432,20.4804688 70.8574219,20.4804688 Z M85.5175781,23.3398438 C84.3769474,23.3398438 83.3906292,23.1933608 82.5585938,22.9003906 C81.7265583,22.6074204 81.0175811,22.1640655 80.4316406,21.5703125 C79.2675723,20.3828066 78.6855469,18.6953234 78.6855469,16.5078125 C78.6855469,15.414057 78.8242174,14.4492229 79.1015625,13.6132812 C79.3789076,12.7773396 79.7988253,12.0468781 80.3613281,11.421875 C81.4707087,10.1796813 83.0019434,9.55859375 84.9550781,9.55859375 C85.8769577,9.55859375 86.7206993,9.69726424 87.4863281,9.97460938 C88.251957,10.2519545 88.9121066,10.687497 89.4667969,11.28125 C90.0214871,11.875003 90.4277331,12.5839803 90.6855469,13.4082031 C90.9433607,14.232426 91.0722656,15.1484325 91.0722656,16.15625 L91.0722656,17.5507812 L82.1777344,17.5507812 C82.1933595,18.5898489 82.4980439,19.3593725 83.0917969,19.859375 C83.6933624,20.36719 84.5878847,20.6210938 85.7753906,20.6210938 C86.5644571,20.6210938 87.3456993,20.5078136 88.1191406,20.28125 C88.4785174,20.1718745 88.8574199,20.0312509 89.2558594,19.859375 C89.6542989,19.6874991 90.0761696,19.4687513 90.5214844,19.203125 L90.5214844,22.3554688 C89.7246054,22.6835954 88.9121135,22.9296867 88.0839844,23.09375 C87.6621073,23.1796879 87.2343772,23.2421873 86.8007812,23.28125 C86.3671853,23.3203127 85.9394552,23.3398438 85.5175781,23.3398438 Z M87.6152344,14.9726563 C87.5996093,14.0585892 87.3691429,13.3710961 86.9238281,12.9101563 C86.7128896,12.6914052 86.4414079,12.521485 86.109375,12.4003906 C85.7773421,12.2792963 85.3925803,12.21875 84.9550781,12.21875 C84.1503866,12.21875 83.5136742,12.4570289 83.0449219,12.9335938 C82.5761695,13.4179712 82.2988286,14.1015581 82.2128906,14.984375 L87.6152344,14.9726563 Z M94.9980469,9.875 L98.0917969,9.875 L98.4316406,11.9140625 C98.7753923,11.1562462 99.2910122,10.5742208 99.9785156,10.1679688 C100.33008,9.96484273 100.708982,9.81250051 101.115234,9.7109375 C101.521486,9.60937449 101.943357,9.55859375 102.380859,9.55859375 C102.615236,9.55859375 102.857421,9.57226549 103.107422,9.59960938 C103.357423,9.62695326 103.58789,9.66796848 103.798828,9.72265625 C104.025392,9.78515656 104.251952,9.86132768 104.478516,9.95117188 C104.705079,10.0410161 104.904296,10.132812 105.076172,10.2265625 L105.076172,13.4960938 C104.70117,13.152342 104.263674,12.8945321 103.763672,12.7226562 C103.513671,12.6367183 103.250001,12.5722658 102.972656,12.5292969 C102.695311,12.4863279 102.408205,12.4648438 102.111328,12.4648438 C101.376949,12.4648438 100.740237,12.5898425 100.201172,12.8398438 C99.6542941,13.089845 99.2324234,13.4570288 98.9355469,13.9414062 C98.8574215,14.0664069 98.7832035,14.2187491 98.7128906,14.3984375 C98.6425778,14.5781259 98.5878908,14.7890613 98.5488281,15.03125 C98.5097654,15.2578136 98.4804688,15.5195298 98.4609375,15.8164062 C98.4414062,16.1132827 98.4316406,16.4921852 98.4316406,16.953125 L98.4316406,23 L94.9980469,23 L94.9980469,9.875 Z" id="Paper" fill="#323336"></path>
        <path d="M114.501953,23.3398438 C112.447255,23.3398438 110.853521,22.7304748 109.720703,21.5117188 C108.580072,20.2851501 108.009766,18.597667 108.009766,16.4492188 C108.009766,14.292958 108.583979,12.5976624 109.732422,11.3632812 C110.880865,10.1445252 112.458974,9.53515625 114.466797,9.53515625 C115.18555,9.53515625 115.873044,9.61718668 116.529297,9.78125 C117.177738,9.94531332 117.826169,10.199217 118.474609,10.5429688 L118.474609,13.6835938 C118.224608,13.4648427 117.957033,13.2714852 117.671875,13.1035156 C117.386717,12.935546 117.107423,12.7968755 116.833984,12.6875 C116.560546,12.5781245 116.263673,12.4941409 115.943359,12.4355469 C115.623045,12.3769528 115.294924,12.3476562 114.958984,12.3476562 C114.373044,12.3476562 113.871096,12.4394522 113.453125,12.6230469 C113.035154,12.8066415 112.681642,13.0703108 112.392578,13.4140625 C111.791013,14.1328161 111.490234,15.1445247 111.490234,16.4492188 C111.490234,17.7539128 111.791013,18.7617152 112.392578,19.4726562 C112.986331,20.1757848 113.845698,20.5273438 114.970703,20.5273438 C115.626956,20.5273438 116.248044,20.4140636 116.833984,20.1875 C117.083986,20.0937495 117.351561,19.9648446 117.636719,19.8007812 C117.921876,19.6367179 118.201171,19.4296888 118.474609,19.1796875 L118.474609,22.3320312 C118.162108,22.5117196 117.85547,22.6601557 117.554688,22.7773438 C117.253905,22.8945318 116.939455,22.9960933 116.611328,23.0820312 C116.283201,23.1679692 115.951174,23.2324217 115.615234,23.2753906 C115.279295,23.3183596 114.908205,23.3398438 114.501953,23.3398438 Z" id="c" fill="#323336"></path>
        <path d="M128.509766,23.09375 C126.876945,23.09375 125.705082,22.6718792 124.994141,21.828125 C124.2832,20.9921833 123.927734,19.5898536 123.927734,17.6210938 L123.927734,7.40234375 L120.447266,7.40234375 L120.447266,4.765625 L127.361328,4.765625 L127.361328,17.6210938 C127.361328,18.6445364 127.521483,19.3749978 127.841797,19.8125 C128.154298,20.2421896 128.697262,20.4570312 129.470703,20.4570312 L132.212891,20.4570312 L132.212891,23.09375 L128.509766,23.09375 Z" id="l" fill="#323336"></path>
        <g id="paperclip" transform="translate(3.000000, 3.000000)" stroke="#323336" stroke-width="2" stroke-linecap="round" stroke-linejoin="round">
            <path d="M19.44,10.05 L10.25,19.24 C7.90555124,21.5844488 4.10444876,21.5844488 1.76,19.24 C-0.584448763,16.8955512 -0.584448763,13.0944488 1.76,10.75 L10.95,1.56 C12.5129658,-0.00296580226 15.0470341,-0.00296578338 16.61,1.56000004 C18.1729658,3.12296587 18.1729658,5.65703415 16.61,7.22 L7.41,16.41 C6.62851708,17.1914829 5.36148292,17.1914829 4.58,16.41 C3.79851708,15.6285171 3.79851708,14.3614829 4.58,13.58 L13.07,5.1" id="Shape"></path>
        </g>
        <path d="M149.033203,9.875 L152.115234,9.875 L152.455078,11.84375 C152.814455,11.0859337 153.287106,10.5156269 153.873047,10.1328125 C154.451175,9.74999809 155.142574,9.55859375 155.947266,9.55859375 C156.681644,9.55859375 157.339841,9.70702977 157.921875,10.0039062 C158.503909,10.3007827 159.005857,10.749997 159.427734,11.3515625 C159.849611,11.9609405 160.162108,12.6972613 160.365234,13.5605469 C160.56836,14.4238324 160.669922,15.3906196 160.669922,16.4609375 C160.669922,17.6015682 160.560548,18.5956989 160.341797,19.4433594 C160.123046,20.2910199 159.814455,20.9960909 159.416016,21.5585938 C158.986326,22.1679718 158.468753,22.6171861 157.863281,22.90625 C157.257809,23.1953139 156.599613,23.3398438 155.888672,23.3398438 C155.521483,23.3398438 155.175783,23.2988285 154.851562,23.2167969 C154.527342,23.1347652 154.216798,22.9921885 153.919922,22.7890625 C153.669921,22.6249992 153.414064,22.4042983 153.152344,22.1269531 C152.890624,21.849608 152.658204,21.5234394 152.455078,21.1484375 L152.455078,27.9921875 L149.033203,27.9921875 L149.033203,9.875 Z M154.857422,20.4804688 C155.599613,20.4804688 156.181639,20.1210973 156.603516,19.4023438 C157.025393,18.6914027 157.236328,17.6992251 157.236328,16.4257812 C157.236328,15.1601499 157.025393,14.1679723 156.603516,13.4492188 C156.181639,12.7304652 155.599613,12.3710938 154.857422,12.3710938 C154.123043,12.3710938 153.537112,12.7304652 153.099609,13.4492188 C152.66992,14.1601598 152.455078,15.1523374 152.455078,16.4257812 C152.455078,17.6992251 152.66992,18.6914027 153.099609,19.4023438 C153.537112,20.1210973 154.123043,20.4804688 154.857422,20.4804688 Z" id="p" fill="#323336"></path>
        <path d="M137.560547,8.31640625 C137.326171,8.31640625 137.208984,8.19921992 137.208984,7.96484375 L137.208984,4.66015625 C137.208984,4.42578008 137.326171,4.30859375 137.560547,4.30859375 L140.291016,4.30859375 C140.525392,4.30859375 140.642578,4.42578008 140.642578,4.66015625 L140.642578,7.96484375 C140.642578,8.19921992 140.525392,8.31640625 140.291016,8.31640625 L137.560547,8.31640625 Z M141.791016,23.140625 C140.158195,23.140625 138.986332,22.7187542 138.275391,21.875 C137.56445,21.0390583 137.208984,19.6367286 137.208984,17.6679688 L137.208984,12.5117188 L134.431641,12.5117188 L134.431641,9.875 L140.642578,9.875 L140.642578,17.6679688 C140.642578,18.6914114 140.802733,19.4218728 141.123047,19.859375 C141.435548,20.2890646 141.978512,20.5039062 142.751953,20.5039062 L145.494141,20.5039062 L145.494141,23.140625 L141.791016,23.140625 Z" id="i" fill="#323336"></path>
    </g>
</svg>